<svg xmlns="http://www.w3.org/2000/svg" width="324" height="130" viewBox="0 0 324 130"><g><g><path fill="#d8b98b" d="M259.555 71.404v.18s3.14.014 3.012 2.909c-.087 1.986-1.439 3.383-4.384 3.583-2.676.18-3.913-1.377-3.893-1.404.041-.046 1.15-1.53 1.15-1.53l.222.06c.215.929.598 1.724 1.789 1.865 1.573.08 2.373-.97 2.299-2.527-.101-2.14-1.351-2.64-2.938-2.38v-.923s2.642.77 2.568-2.533c-.04-1.611-.827-1.98-1.775-1.899-.84.067-1.385.735-1.506 1.965l-.289.054c-.276-.354-.74-.769-1.224-1.224 0 0 .868-1.664 2.986-1.771 1.243-.06 4.087.047 4.477 2.266.477 2.721-2.487 3.313-2.494 3.31zm-11.78-1.965c0-1.53-.464-2.794-1.627-2.794-1.21 0-1.627 1.263-1.627 2.794 0 1.578.417 2.841 1.627 2.841 1.157 0 1.627-1.257 1.627-2.841zm2.656 1.497c0 3.557-1.136 5.81-3.193 6.699-2.038.882-4.055.194-4.055.194-.087-.314-.188-.742-.37-1.103l.209-.308c.598.448 1.109.655 1.99.589 1.479-.114 1.977-1.11 2.347-2.24.356-1.083.369-2.433.369-2.433l-.047-.047s-.887 1.53-3.624.809c-1.022-.274-2.366-1.224-2.319-3.383.094-3.33 2.877-3.964 4.457-3.87 3.665.18 4.27 3.288 4.236 5.093zm-15.242 3.644c0-1.531-.464-2.795-1.627-2.795-1.204 0-1.621 1.264-1.621 2.795 0 1.578.417 2.841 1.621 2.841 1.163 0 1.627-1.263 1.627-2.841zm-3.066-5.763c0 1.257.377 2.206 1.439 2.206 1.022 0 1.486-.99 1.486-2.253 0-1.256-.464-2.206-1.486-2.206-1.062 0-1.439.99-1.439 2.253zm3.247 2.52s2.508.542 2.502 3.156c0 2.072-1.432 3.603-4.317 3.603-3.294 0-4.316-1.617-4.316-3.603 0-2.614 2.507-3.109 2.507-3.109v-.133s-2.138-.408-2.138-2.527c0-1.618 1.439-2.928 3.947-2.928 2.555 0 3.906 1.216 3.906 2.928 0 2.119-2.091 2.527-2.091 2.527zm-16.802-3.215a43.727 43.727 0 0 0 5.467-2.313l.349.14c-.249 3.523-.222 7.661-.074 12.074a32.22 32.22 0 0 0-2.898 0c.195-3.316.263-6.625.202-9.941l-2.138 1.023a6.286 6.286 0 0 0-.908-.983zM80.319 59.023c.08.234-.202.408-.39.241-2.528-2.28-11.968-9.98-20.648-8.13C47.562 53.636 44.248 64.5 44.248 64.5s-.498-.91-.491-2.24c-3.268 4.004-5.453 7.688-4.841 14.32-3.14-.074-4.962-4.018-4.525-6.926-1.076 3.33-4.525 6.444-11 6.297 2.158-1.397 4.754-4.044 5.271-6.518-4.914 2.761-9.897.094-11.261-1.33 1.7.575 6.32.194 7.785-.802-5.412-2.106-6.252-7.374-4.108-10.85 1.5-2.454 5.15-3.798 7.907-3.323 1.54.274 2.387 1.444 2.286 2.607-.12 1.478-1.338 2.4-2.716 2.367-1.446-.034-2.602-1.17-2.569-2.56.007-.201.02-.415.074-.589-2.628 2.14-1.902 7.454 2.495 9.5 3.268 1.537 7.154 1.003 10.247-1.07 3.845-2.527 6.024-6.839 9.433-9.96 7.94-7.254 19.357-6.606 26.618-1.104-12.855-21.74-34.808-15.423-32.313-6.39.585 2.085 3.046 2.66 4.31 2.232-.861-.14-1.527-.89-1.506-1.772a1.78 1.78 0 0 1 1.808-1.718c.962.02 1.997.863 1.694 2.273-.732 3.443-8.35 3.029-8.713-3.088-2.38 1.096-3.207 7.527.296 8.677 0-.067-.014-.127-.014-.174.02-.942.888-1.691 1.903-1.671 1.042.02 1.856.809 1.835 1.758-.02.822-.645 1.458-1.54 1.645-5.708 1.103-11.712-7.04-6.266-15.25-6.353-.026-13.158-1.563-12.23-9.773.37 10.215 20.245-2.413 38.19 5.622 3.933 1.765 7.524 4.92 10.737 9.166 3.53 4.666 6.374 12.548 7.275 15.168zm102.151-44.91c-1.372-1.364-4.922-2.534-4.922 1.15m6.394 16.552c5.271-1.685 10.173-8.918 6.307-14.193 3.516-1.277 6.448-8.925-2.044-6.297 4.868-.415 1.815 5.314-1.136 5.635 2.144 2.1 3.711 9.065-3.127 14.855zm-37.443-16.546c0-3.684-3.55-2.514-4.922-1.15m-1.472 17.696c-6.845-5.79-5.271-12.756-3.127-14.855-2.945-.32-6.004-6.05-1.136-5.635-8.492-2.634-5.554 5.02-2.037 6.297-3.873 5.275 1.029 12.508 6.3 14.193zm93.692-10.249c4.155.93 16.486.682 28.185-3.496-4.323 8.717-24.682 12.562-32.313 12.562 4.827 1.176 16.708 1.45 24.971-.69-4.706 7.415-23.741 8.458-29.496 8.197 3.113 2.132 13.877 2.734 21.603 1.765-6.63 7.781-23.022 6.077-26.679 4.499 3.247 3.182 9.769 4.359 14.57 5.014 2.306.307 1.647 1.47.638 1.898-6.434 2.815-14.106 1.852-21.784-.842 2.676 3.062 7.725 5.255 12.25 6.826 1.533.601.626 1.404.135 1.59-5.594 2.38-15.451-1.356-19.855-3.683 1.735 2.574 5.184 5.208 11.121 7.534 1.916.669.491 1.498-.208 1.785-5.884 2.18-16.137-2.159-19.936-5.916.464 2.467 4.539 6.605 9.218 9.199 1.5.889.041 1.524-1.062 1.745-2.945.615-6.071.234-10.321-1.257-1.573 3.396.249 8.27 4.196 9.713h-10.865c1.801-6.538 4.807-17.428 4.807-17.428s-2.185-4.466-5.876-6.598c-4.203.642-7.827 3.837-7.827 3.837s-1.096 4.319-1.338 5.328c-2.924-.254-4.155-.481-8.014-.581.39-2.822 1.587-7.909 2.192-12.174-3.086-3.931-10.092-6.966-10.092-6.966s-7.006 3.035-10.092 6.966c.605 4.265 1.808 9.352 2.192 12.174-3.86.1-5.09.327-8.022.581-.235-1.003-1.337-5.328-1.337-5.328s-3.631-3.195-7.827-3.837c-3.691 2.132-5.876 6.598-5.876 6.598s3.005 10.89 4.807 17.428h-10.865c3.947-1.444 5.769-6.317 4.196-9.713-4.243 1.484-7.369 1.865-10.321 1.257-1.103-.221-2.562-.856-1.062-1.745 4.679-2.6 8.754-6.732 9.211-9.199-3.799 3.757-14.052 8.096-19.935 5.916-.693-.28-2.118-1.11-.209-1.785 5.937-2.326 9.393-4.967 11.121-7.534-4.404 2.327-14.261 6.057-19.855 3.684-.49-.194-1.398-.996.135-1.591 4.525-1.571 9.581-3.764 12.25-6.826-7.678 2.694-15.35 3.657-21.784.842-1.015-.427-1.668-1.59.639-1.898 4.8-.649 11.329-1.832 14.569-5.014-3.657 1.578-20.05 3.282-26.679-4.5 7.726.963 18.483.368 21.603-1.764-5.748.26-24.79-.782-29.496-8.196 8.263 2.14 20.144 1.865 24.971.688-7.631 0-27.99-3.85-32.313-12.561 11.699 4.178 24.03 4.419 28.185 3.496C86.646 21.058 58.347 15.463 55.657 0c12.89 11.231 49.385 5.863 56.545 29.107 6.314 20.584 22.551 11.058 32.428 20.851-3.174-8.951-16.022-7.547-18.813-9.312 0-5.074-8.122-8.537-6.811-19.467-1.459.621-2.407 1.945-3.22 2.901-.827-2.64.296-10.957 11.087-14.868-.578-.568-1.52-1.31-1.52-1.31 5.709-1.712 12.728-1.611 16.702 2.34 4.39.742 5.533.534 6.051 3.182 2.743 0 8.633 2.092 10.072 3.155.255.174.383.415.141.85-.504.855-1.486 1.965-1.486 1.965s-.087 1.811-1.385 3.102c-1.311 1.283-1.513 1.704-1.708 2.005 0-1.297-1.297-2.547-3.274-2.547-1.621 0-3.207.89-3.207 2.14 0 1.69 2.534 3.242 6.017 1.443.303.315.639 1.377-.08 3.062.154.274 1.048 1.872-1.386 4.58-1.136-2.935-7.073-4.219-7.073-1.144 0 5.081 11.202 3.584 17.28 10.483 6.078-6.9 17.279-5.402 17.279-10.483 0-3.075-5.93-1.791-7.073 1.143-2.434-2.7-1.54-4.298-1.385-4.579-.726-1.685-.383-2.747-.081-3.062 3.483 1.799 6.018.248 6.018-1.444 0-1.256-1.58-2.139-3.207-2.139-1.977 0-3.275 1.257-3.275 2.547-.195-.3-.396-.722-1.707-2.005-1.298-1.284-1.379-3.102-1.379-3.102s-.981-1.11-1.492-1.966c-.249-.434-.115-.675.141-.849 1.439-1.056 7.322-3.155 10.072-3.155.511-2.648 1.654-2.44 6.051-3.182 3.974-3.958 10.993-4.058 16.694-2.34 0 0-.941.742-1.512 1.31 10.791 3.911 11.914 12.227 11.087 14.868-.814-.956-1.762-2.28-3.221-2.901 1.311 10.923-6.811 14.393-6.811 19.467-2.79 1.758-15.632.36-18.812 9.312 9.877-9.793 26.114-.267 32.427-20.85C218.999 5.862 255.494 11.23 268.383 0c-2.683 15.463-30.982 21.058-34.586 21.566zm-65.4 56.437H155.67c-.168-1.966-.404-4.693-.619-7.521-.322-4.045 6.973-4.64 6.973-4.64s7.315.602 6.972 4.64c-.222 2.834-.444 5.562-.599 7.52zm-111.1-3.744c.021.588-.12 2.834-2.823 3.71-.894.294-1.99.421-3.671.074-.726-.154-1.204-.542-1.204-.542s.242-.849.316-1.163c.074-.327.216-1.156.216-1.156h.443s.175 1.831 2.394 1.898c1.735.054 2.01-1.257 2.01-1.731 0-.428-.14-1.043-1.331-1.785-.437-.274-1.862-.883-2.562-1.384-.988-.715-1.378-1.397-1.391-2.781a3.767 3.767 0 0 1 .336-1.645c.477-.996 1.223-1.604 2.185-1.932a4.704 4.704 0 0 1 1.54-.254c.638 0 1.21.074 1.694.234.82.274 1.29.675 1.29.675-.214.542-.41 1.157-.598 1.826h-.356s-.383-1.498-2.104-1.511c-1.426-.007-1.795 1.056-1.782 1.524.013.421.128.755.383 1.023.807.835 2.764 1.47 3.584 2.139.591.481 1.371 1.116 1.432 2.781zm4.33-8.457c.8.127 1.688.114 2.536 0-.101 4.038-.135 8.123 0 12.227a16.01 16.01 0 0 0-2.535 0c.148-4.278.168-8.383 0-12.227zm7.773-.013c.552.12 1.11.134 1.647.013l7.148 8.03c.033-3.09.134-5.697-.014-8.043.652.134 1.553.134 2.125 0-.242 3.81-.316 7.942-.29 12.234-.517-.047-1.028-.06-1.505 0-2.676-3.049-4.754-6.057-7.174-8.584-.081 2.794-.04 5.77.094 8.59a14.824 14.824 0 0 0-2.313-.006c.33-3.71.457-7.802.282-12.234zm25.14.675a6.741 6.741 0 0 0-.424 1.885h-.336s-.942-1.53-2.81-1.557c-3.37-.054-4.163 3.329-4.19 5.22-.067 4.166 2.71 4.948 3.772 5.055 2.118.214 3.57-1.324 3.57-1.324l.323.194a5.458 5.458 0 0 0-.41 1.564s-2.407 1.157-5.13.642c-1.95-.368-5.157-1.53-5.157-5.996 0-5.643 4.512-6.652 7.322-6.565 1.594.046 3.452.881 3.47.882zm0 0zm10.925-.662a3.984 3.984 0 0 0-.006 1.671l-4.028-.22c-.027 1.09-.054 2.353-.087 3.71l4.041-.147a3.39 3.39 0 0 0-.007 1.645 46.263 46.263 0 0 0-4.041-.16 84.942 84.942 0 0 0 .034 4.325 32.892 32.892 0 0 0 4.081-.241 3.805 3.805 0 0 0 .013 1.631 145.112 145.112 0 0 0-7.026.007c.188-3.737.155-7.869 0-12.22 2.609.1 5.029.133 7.026 0zm56.733 36.174c-.074 0-.988.541-.988.541-2.299-3.41-5.076-5.207-7.988-5.207h-5.533v25.657c0 2.761 2.958 4.185 4.854 4.493v1.236h-20.527v-1.236c1.883-.248 4.922-1.732 4.922-4.493V97.31h-5.58c-2.892 0-5.682 1.791-8.035 5.221 0-.054-.955-.595-.955-.595.034 0 2.152-9.085 2.152-9.085h35.581c.006.066 2.091 9.111 2.097 9.125zm151.502 9.633c0-9.132-4.828-15.503-11.76-15.503-6.058 0-12.58 4.292-12.58 13.691 0 7.454 3.826 15.457 12.217 15.457 7.248 0 12.123-5.509 12.123-13.645zm10.3-.722c0 6.959-3.873 11.479-6.152 13.558-4.148 3.75-9.386 5.562-16.634 5.562-8.337 0-13.171-2.761-15.726-5.061-4.236-3.837-6.381-8.544-6.381-13.919 0-11.117 9.709-19.474 22.557-19.474 7.659 0 12.533 1.672 16.95 5.65 3.429 3.155 5.386 8.122 5.386 13.684zM211.367 98.613c0-2.794-2.971-4.265-4.861-4.546-.006 0 0-1.21 0-1.21h20.5v1.257c-1.869.227-4.894 1.711-4.894 4.5l.02 25.623h9.446c2.898 0 5.668-1.811 8.069-5.201 0 0 .053.027.134.081.081.073.215.147.33.207.221.16.47.307.47.307l-2.131 9.079h-31.937v-1.237c1.863-.254 4.854-1.738 4.854-4.499zm-40.247-.033c0-2.781-2.992-4.239-4.901-4.52v-1.21h31.984l2.091 9.132-1.002.542c-2.293-3.41-5.09-5.208-7.967-5.208h-9.454v13.23l2.145-1.959.141-.14c.948-.869 1.923-1.785 4.512-1.785 1.19 0 1.896.207 2.528.401 0 0 .645.248 1.795.294.632.047 1.183-.107 1.708-.347-.222 2.981-1.298 6.01-7.45 6.197-1.687 0-4.162.227-5.372 2.279v8.751h9.453c2.885 0 5.648-1.811 8.035-5.201l.961.589-2.144 9.078h-31.951l.014-1.237c1.856-.247 4.874-1.731 4.874-4.492zM6.354 124.926C2.124 121.089 0 116.389 0 111.027c0-5.094 1.91-9.626 5.56-13.13 4.297-4.13 10.556-6.337 17.683-6.337h.78c5.547.14 10.106.615 14.415 2.64 0 .108.64 4.52 1.002 7.007.135.956.222 1.631.222 1.631-.067 0-1.472.762-1.472.762-2.078-3.623-6.623-7.527-12.997-7.527h-.013c-9.615 0-14.9 4.893-14.9 13.771 0 3.63 1.291 8.771 4.861 12.067 2.495 2.3 5.776 3.463 9.75 3.463.423 0 .847-.007 1.297-.027 5.574-.374 9.917-2.514 13.306-6.545 0 .054.807.722.807.722l1.56 1.331c-.942 1.323-1.984 2.56-3.12 3.583-4.135 3.77-9.42 5.562-16.64 5.562-8.365-.007-13.179-2.768-15.747-5.074zm34.915 2.54c2.037-.254 4.606-1.671 5.708-4.191l10.785-24.896c.255-.628.37-1.21.37-1.685 0-.541-.135-1.036-.404-1.404-.49-.735-1.425-1.116-2.837-1.223-.014 0 0-1.21 0-1.21h14.718c0 .074 11.699 30.384 11.699 30.384.968 2.674 4.202 3.978 6.178 4.232v1.237H65.87l.007-1.237c1.217-.12 2.884-.749 3.772-1.999a2.853 2.853 0 0 0 .565-1.691c0-.355-.054-.675-.182-1.043l-8.566-22.101-6.192 15.242 2.131-1.605c.579-.421 1.285-.875 2.656-.875 1.163 0 1.473.087 2.044.2.31.101.773.141 1.143.187 0 0 .72.107 1.05-.173-.398 1.972-1.77 5.167-6.49 5.167h-.046c-.417 0-2.387.04-4.028 1.163l-.134.101c-.067.06-1.096 2.594-1.412 3.376-.175.361-.276.708-.276 1.003 0 .347.101.688.29 1.029.658 1.117 2.332 1.825 3.657 2.012v1.237H41.256zm77.932-8.323c0 2.821-1.022 5.282-2.978 7.107-2.656 2.453-6.986 3.73-12.634 3.73-.766 0-1.539-.02-2.346-.067-4.666-.261-8.001-.989-11.484-2.727 0-.141-1.237-8.611-1.257-8.664h.006c.068 0 .491-.234.491-.234l.982-.522c2.743 4.954 6.79 7.508 11.914 7.508h.013c4.209-.027 6.462-2.654 6.462-4.513 0-3.817-4.209-5.843-8.66-7.989-5.285-2.52-10.751-5.147-10.751-10.836 0-2.781 1.002-5.175 2.884-6.94 2.468-2.266 6.468-3.456 11.652-3.456.726 0 1.486.027 2.239.06 5.379.314 8.411 1.33 10.664 2.3-.027 0 .296 2.16.618 4.319.303 2.166.639 4.325.639 4.325l-1.486.735c-2.642-4.76-6.67-7.193-11.88-7.193h-.054c-2.777 0-4.525 1.912-4.525 3.67 0 2.654 3.375 4.326 7.288 6.244 5.446 2.708 12.224 6.084 12.203 13.143zm140.011 5.094h9.467c2.891 0 5.668-1.811 8.001-5.201 0 0 .06.027.154.081.095.073.222.147.33.207.235.16.477.307.477.307l-2.124 9.079H243.54v-1.237c1.875-.247 4.894-1.731 4.894-4.492V98.62c0-2.795-2.978-4.265-4.894-4.546v-1.21h20.553v1.257c-1.862.214-4.908 1.698-4.908 4.492zm-8.216-80.382c3.214-4.245 6.804-7.4 10.737-9.166 17.946-8.035 37.82 4.593 38.19-5.622.928 8.21-5.87 9.747-12.23 9.78 5.446 8.21-.558 16.352-6.266 15.25-.895-.188-1.52-.823-1.54-1.645-.027-.95.793-1.738 1.835-1.758 1.016-.02 1.883.728 1.903 1.671 0 .047-.013.107-.013.174 3.503-1.143 2.676-7.581.296-8.678-.363 6.117-7.981 6.532-8.714 3.089-.309-1.41.74-2.253 1.694-2.273a1.78 1.78 0 0 1 1.809 1.718c.02.883-.646 1.631-1.506 1.772 1.257.428 3.725-.147 4.31-2.233 2.494-9.032-19.458-15.35-32.314 6.39 7.262-5.501 18.678-6.15 26.619 1.11 3.415 3.123 5.587 7.428 9.433 9.962 3.099 2.072 6.979 2.607 10.253 1.062 4.397-2.045 5.124-7.36 2.495-9.5.053.168.067.389.074.59.033 1.39-1.123 2.526-2.569 2.56-1.378.033-2.602-.883-2.723-2.367-.094-1.157.753-2.333 2.293-2.607 2.763-.475 6.407.869 7.9 3.322 2.145 3.477 1.304 8.745-4.108 10.85 1.466.996 6.085 1.377 7.786.803-1.358 1.424-6.347 4.09-11.255 1.33.511 2.474 3.113 5.12 5.271 6.518-6.468.147-9.924-2.975-11-6.297.444 2.908-1.385 6.852-4.525 6.919.612-6.632-1.573-10.315-4.841-14.32.007 1.33-.49 2.24-.49 2.24s-3.315-10.864-15.034-13.364c-8.68-1.852-18.12 5.85-20.648 8.13-.188.166-.471-.008-.39-.248.901-2.614 3.738-10.503 7.268-15.162zm67.087 43.126h.31c.195 0 .39-.013.524-.047.168-.027.289-.067.377-.147a.533.533 0 0 0 .201-.254.69.69 0 0 0 .081-.354.556.556 0 0 0-.081-.288.456.456 0 0 0-.228-.22 1.117 1.117 0 0 0-.35-.087c-.108-.02-.282-.02-.43-.02h-.404zm0 2.76h-1.237v-5.046h1.923a7.3 7.3 0 0 1 .854.04c.229.02.43.093.659.2.228.127.376.294.497.481.115.181.175.415.175.676 0 .374-.107.675-.316.922-.208.228-.484.408-.833.569l1.943 2.172h-1.607l-1.553-1.845h-.505zm-3.207-2.406c0 1.11.397 2.02 1.184 2.821.793.776 1.721 1.164 2.83 1.164 1.096 0 2.017-.388 2.824-1.164.78-.809 1.177-1.711 1.177-2.82 0-1.097-.397-2.04-1.177-2.829-.807-.775-1.721-1.17-2.824-1.17-1.109 0-2.044.395-2.83 1.17-.787.79-1.184 1.732-1.184 2.828zm.377 3.583c-1.002-.982-1.506-2.172-1.506-3.583 0-1.404.504-2.594 1.506-3.576.995-1.01 2.205-1.505 3.63-1.505 1.399 0 2.596.488 3.611 1.505 1.002.982 1.493 2.172 1.493 3.576 0 1.41-.485 2.6-1.493 3.583-1.015 1.003-2.212 1.491-3.611 1.491-1.425 0-2.635-.488-3.63-1.49z"/></g></g></svg>